<svg width="1280" height="720" viewBox="0 0 1280 720" fill="none" xmlns="http://www.w3.org/2000/svg">
  <rect width="1280" height="720" fill="#05070A"/>
  <rect x="60" y="54" width="1160" height="612" rx="16" fill="#0A0D12" stroke="#26313A"/>
  <rect x="92" y="90" width="420" height="48" rx="8" fill="#111820" stroke="#20313A"/>
  <circle cx="120" cy="114" r="12" fill="#14B8A6"/>
  <rect x="146" y="106" width="164" height="12" rx="6" fill="#F8FAFC"/>
  <rect x="92" y="176" width="570" height="126" rx="10" fill="#10161D" stroke="#22303A"/>
  <rect x="122" y="210" width="288" height="18" rx="9" fill="#F8FAFC"/>
  <rect x="122" y="246" width="456" height="10" rx="5" fill="#64748B"/>
  <rect x="122" y="268" width="380" height="10" rx="5" fill="#475569"/>
  <rect x="92" y="334" width="272" height="142" rx="10" fill="#10161D" stroke="#22303A"/>
  <rect x="390" y="334" width="272" height="142" rx="10" fill="#10161D" stroke="#22303A"/>
  <rect x="92" y="506" width="570" height="110" rx="10" fill="#10161D" stroke="#22303A"/>
  <rect x="714" y="90" width="474" height="526" rx="10" fill="#0D131A" stroke="#22303A"/>
  <rect x="746" y="126" width="178" height="12" rx="6" fill="#14B8A6"/>
  <line x1="770" y1="176" x2="770" y2="548" stroke="#1F766F"/>
  <circle cx="770" cy="196" r="10" fill="#14B8A6"/>
  <circle cx="770" cy="278" r="10" fill="#F59E0B"/>
  <circle cx="770" cy="360" r="10" fill="#14B8A6"/>
  <circle cx="770" cy="442" r="10" fill="#F59E0B"/>
  <rect x="806" y="176" width="312" height="54" rx="8" fill="#101820" stroke="#22303A"/>
  <rect x="806" y="258" width="312" height="54" rx="8" fill="#101820" stroke="#22303A"/>
  <rect x="806" y="340" width="312" height="54" rx="8" fill="#101820" stroke="#22303A"/>
  <rect x="806" y="422" width="312" height="54" rx="8" fill="#101820" stroke="#22303A"/>
  <rect x="826" y="194" width="140" height="9" rx="4.5" fill="#F8FAFC"/>
  <rect x="826" y="276" width="168" height="9" rx="4.5" fill="#F8FAFC"/>
  <rect x="826" y="358" width="152" height="9" rx="4.5" fill="#F8FAFC"/>
  <rect x="826" y="440" width="198" height="9" rx="4.5" fill="#F8FAFC"/>
  <text x="92" y="654" fill="#64748B" font-family="Arial" font-size="18">Live Agent Timeline • Architecture Map • Contributor Mode • Risk Radar</text>
</svg>
